<?xml version="1.0" encoding="utf-8"?>
<!-- Generator: Adobe Illustrator 22.0.0, SVG Export Plug-In . SVG Version: 6.00 Build 0)  -->
<svg version="1.1" id="Layer_1" xmlns="http://www.w3.org/2000/svg" xmlns:xlink="http://www.w3.org/1999/xlink" x="0px" y="0px"
	 viewBox="0 0 5184 3456" style="enable-background:new 0 0 5184 3456;" xml:space="preserve">
<style type="text/css">
	.st0{fill:url(#SVGID_1_);}
	.st1{fill:#595959;}
	.st2{font-family:'PoiretOne-Regular';}
	.st3{font-size:207px;}
	.st4{fill:#666666;}
	.st5{font-family:'Niramit-Regular';}
	.st6{font-size:150px;}
</style>
<linearGradient id="SVGID_1_" gradientUnits="userSpaceOnUse" x1="1408.3837" y1="1458.1769" x2="3996.2942" y2="1458.1769">
	<stop  offset="0" style="stop-color:#0086B9"/>
	<stop  offset="1" style="stop-color:#17FF9E"/>
</linearGradient>
<polygon class="st0" points="3994.1,933.1 3622.1,933.1 3216.6,933.1 3216.6,1168.6 3464.1,1167.2 3258.4,1471.9 3060.5,1191.2 
	2881.3,933.1 2881.4,937.3 2878.5,933.1 2513.7,1455 2513.1,1455.8 2144.6,933.1 1663,1622.1 1408.4,1983.3 1410.6,1983.3 
	1782.5,1983.3 2188.1,1983.3 2188.1,1747.7 1940.6,1749.2 2147.8,1442.2 2332,1715 2513.1,1983.3 2513.7,1983.3 2516.4,1983.3 
	2696.7,1716.2 2881.7,1442.2 3247,1983.3 3434.1,1721.1 3996.3,933.1 "/>
<text transform="matrix(1 0 0 1 1424.0306 2686.1172)" class="st1 st2 st3">Adrian Monasterios Gutierrez</text>
<text transform="matrix(1 0 0 1 2276.6472 438.4116)" class="st4 st5 st3">Welcome!</text>
<text transform="matrix(1 0 0 1 1883.8237 2996.7061)" class="st4 st5 st6">Full Stack Web Developer</text>
</svg>
