<svg xmlns="http://www.w3.org/2000/svg" xmlns:xlink="http://www.w3.org/1999/xlink" viewBox="0 0 184.12 74.71"><defs><style>.cls-1{fill:url(#linear-gradient);}</style><linearGradient id="linear-gradient" y1="37.36" x2="184.12" y2="37.36" gradientUnits="userSpaceOnUse"><stop offset="0" stop-color="#0086b9"/><stop offset="1" stop-color="#17ff9e"/></linearGradient></defs><title>Logo</title><g id="Layer_2" data-name="Layer 2"><g id="Layer_1-2" data-name="Layer 1"><polygon class="cls-1" points="183.96 0 157.5 0 128.65 0 128.65 16.76 146.26 16.65 131.62 38.33 117.54 18.37 104.79 0 104.8 0.3 104.59 0 78.64 37.13 78.6 37.19 52.38 0 18.12 49.02 0 74.72 0.16 74.72 26.62 74.72 55.47 74.72 55.47 57.96 37.86 58.06 52.61 36.22 65.71 55.63 78.6 74.72 78.64 74.72 78.83 74.72 91.66 55.71 104.82 36.22 130.81 74.72 144.12 56.06 184.12 0 183.96 0"/></g></g></svg>